<?xml version="1.0" ?><svg viewBox="0 0 20 30" xmlns="http://www.w3.org/2000/svg"><title/><g data-name="Layer 2" id="Layer_2"><g id="Interface-Solid"><g id="interface-solid-award-medal-2"><path d="M10,20a9.92593,9.92593,0,0,1-5.331-1.55469L2.59686,26.73364,9.44531,22.168a.99746.99746,0,0,1,1.10938,0l6.84845,4.56567-2.07209-8.28833A9.92593,9.92593,0,0,1,10,20Z" fill="none"/><path d="M7.27026,11.08154a.5552.5552,0,0,1,.17743.571l-.71551,2.658A.523.523,0,0,0,7.517,14.907l2.196-1.533a.49741.49741,0,0,1,.5741,0l2.196,1.533a.523.523,0,0,0,.78479-.59643l-.71551-2.658a.5552.5552,0,0,1,.17743-.571l2.07263-1.71045a.54568.54568,0,0,0-.29975-.96484L11.8645,8.29639A.51955.51955,0,0,1,11.4,7.9436l-.915-2.59033a.50965.50965,0,0,0-.9701,0L8.6,7.9436a.51955.51955,0,0,1-.46448.35279l-2.63812.10986a.54568.54568,0,0,0-.29975.96484Z" fill="none"/><path d="M19.9707,28.7793c-.00164-.00733.00086-.01416-.001-.02149L17.051,17.08276a10,10,0,1,0-14.10192,0L.03027,28.75781c-.00183.00733.00067.01416-.001.02149a.99127.99127,0,0,0-.01117.23828,1.00522,1.00522,0,0,0-.0008.1521,1.01338,1.01338,0,0,0,.05591.15405.99042.99042,0,0,0,.08563.20874c.0044.00708.00446.01538.0091.02222a.93678.93678,0,0,0,.106.10571.96854.96854,0,0,0,.15234.15186.97071.97071,0,0,0,.202.09594.97359.97359,0,0,0,.12958.06153c.00983.00244.01966.00146.02948.00366.01752.00366.03479.00366.05249.00659A1.02224,1.02224,0,0,0,1.001,30a.9487.9487,0,0,0,.11108-.01855A.95815.95815,0,0,0,1.23987,29.96a.9891.9891,0,0,0,.23968-.09741c.0243-.01343.05158-.01489.07514-.03052L10,24.20215,18.44531,29.832a185.62391,185.62391,0,0,1,.24909.11694A.99354.99354,0,0,0,18.999,30a1.005,1.005,0,0,0,.243-.03027h.00019l.00042-.00025a.99433.99433,0,0,0,.32215-.15307c.01868-.01294.03741-.02393.05505-.03809a.98177.98177,0,0,0,.21222-.22363c.00464-.00684.0047-.01514.0091-.02222a.99042.99042,0,0,0,.08563-.20874.4494.4494,0,0,0,.05511-.30615A.99127.99127,0,0,0,19.9707,28.7793ZM5.49738,8.40625,8.1355,8.29639A.51955.51955,0,0,0,8.6,7.9436l.915-2.59033a.50965.50965,0,0,1,.9701,0L11.4,7.9436a.51955.51955,0,0,0,.46448.35279l2.63812.10986a.54568.54568,0,0,1,.29975.96484l-2.07263,1.71045a.5552.5552,0,0,0-.17743.571l.71551,2.658a.523.523,0,0,1-.78479.59643l-2.196-1.533a.49741.49741,0,0,0-.5741,0L7.517,14.907a.523.523,0,0,1-.78479-.59643l.71551-2.658a.5552.5552,0,0,0-.17743-.571L5.19763,9.37109A.54568.54568,0,0,1,5.49738,8.40625ZM10.55469,22.168a.99746.99746,0,0,0-1.10938,0L2.59686,26.73364,4.669,18.44531a9.91746,9.91746,0,0,0,10.6621,0l2.07209,8.28833Z"/></g></g></g></svg>